<svg xmlns="http://www.w3.org/2000/svg" xmlns:cc="http://web.resource.org/cc/" xmlns:svg="http://www.w3.org/2000/svg" xmlns:xlink="http://www.w3.org/1999/xlink" id="svg2327" width="48" height="48" version="1.1"><defs id="defs3"><radialGradient id="radialGradient4473" cx="15.414" cy="13.078" r="6.656" fx="15.414" fy="13.078" gradientTransform="matrix(2.592963,0,0,2.252104,-25.05975,-18.941)" gradientUnits="userSpaceOnUse" xlink:href="#linearGradient4467"/><linearGradient id="linearGradient4446" x1="30.656" x2="33.219" y1="34" y2="31.063" gradientTransform="matrix(1.334593,0,0,1.291292,-6.973842,-7.460658)" gradientUnits="userSpaceOnUse" xlink:href="#linearGradient4440"/><linearGradient id="linearGradient2852" x1="27.366" x2="31.336" y1="26.58" y2="30.558" gradientUnits="userSpaceOnUse" xlink:href="#linearGradient2846"/><linearGradient id="linearGradient4260" x1="26.076" x2="30.811" y1="26.697" y2="42.007" gradientTransform="matrix(0.998504,0,0,0.998246,-6.970391,-4.892901)" gradientUnits="userSpaceOnUse" xlink:href="#linearGradient2259"/><linearGradient id="linearGradient4258" x1="22.308" x2="35.785" y1="18.992" y2="39.498" gradientTransform="matrix(1.065698,0,0,0.987595,-8.54832,-4.891713)" gradientUnits="userSpaceOnUse" xlink:href="#linearGradient15218"/><linearGradient id="linearGradient2251"><stop style="stop-color:#fff;stop-opacity:1" id="stop2253" offset="0"/><stop style="stop-color:#fff;stop-opacity:0" id="stop2255" offset="1"/></linearGradient><linearGradient id="linearGradient2224"><stop style="stop-color:#7c7c7c;stop-opacity:1" id="stop2226" offset="0"/><stop style="stop-color:#b8b8b8;stop-opacity:1" id="stop2228" offset="1"/></linearGradient><linearGradient id="linearGradient2259"><stop style="stop-color:#fff;stop-opacity:1" id="stop2261" offset="0"/><stop style="stop-color:#fff;stop-opacity:0" id="stop2263" offset="1"/></linearGradient><linearGradient id="linearGradient15218"><stop style="stop-color:#f0f0ef;stop-opacity:1" id="stop15220" offset="0"/><stop id="stop2269" offset=".599" style="stop-color:#e8e8e8;stop-opacity:1"/><stop id="stop2267" offset=".828" style="stop-color:#fff;stop-opacity:1"/><stop style="stop-color:#d8d8d3;stop-opacity:1" id="stop15222" offset="1"/></linearGradient><linearGradient id="linearGradient4467"><stop style="stop-color:#fff;stop-opacity:1" id="stop4469" offset="0"/><stop style="stop-color:#fff;stop-opacity:.24761905" id="stop4471" offset="1"/></linearGradient><linearGradient id="linearGradient4454"><stop style="stop-color:#729fcf;stop-opacity:.20784314" id="stop4456" offset="0"/><stop style="stop-color:#729fcf;stop-opacity:.6761905" id="stop4458" offset="1"/></linearGradient><linearGradient id="linearGradient4487"><stop style="stop-color:#fff;stop-opacity:1" id="stop4489" offset="0"/><stop style="stop-color:#fff;stop-opacity:0" id="stop4491" offset="1"/></linearGradient><linearGradient id="linearGradient2366"><stop id="stop2368" offset="0" style="stop-color:#fff;stop-opacity:1"/><stop style="stop-color:#fff;stop-opacity:.21904762" id="stop2374" offset=".5"/><stop id="stop2370" offset="1" style="stop-color:#fff;stop-opacity:1"/></linearGradient><linearGradient id="linearGradient4440"><stop style="stop-color:#7d7d7d;stop-opacity:1" id="stop4442" offset="0"/><stop id="stop4448" offset=".5" style="stop-color:#b1b1b1;stop-opacity:1"/><stop style="stop-color:#686868;stop-opacity:1" id="stop4444" offset="1"/></linearGradient><linearGradient id="linearGradient2846"><stop id="stop2848" offset="0" style="stop-color:#8a8a8a;stop-opacity:1"/><stop id="stop2850" offset="1" style="stop-color:#484848;stop-opacity:1"/></linearGradient><linearGradient id="linearGradient4477"><stop style="stop-color:#000;stop-opacity:1" id="stop4479" offset="0"/><stop style="stop-color:#000;stop-opacity:0" id="stop4481" offset="1"/></linearGradient><radialGradient id="radialGradient6719" cx="605.714" cy="486.648" r="117.143" fx="605.714" fy="486.648" gradientTransform="matrix(-2.774389,0,0,1.969706,112.7623,-872.8854)" gradientUnits="userSpaceOnUse" xlink:href="#linearGradient5060"/><linearGradient id="linearGradient5060"><stop style="stop-color:black;stop-opacity:1" id="stop5062" offset="0"/><stop style="stop-color:black;stop-opacity:0" id="stop5064" offset="1"/></linearGradient><radialGradient id="radialGradient6717" cx="605.714" cy="486.648" r="117.143" fx="605.714" fy="486.648" gradientTransform="matrix(2.774389,0,0,1.969706,-1891.633,-872.8854)" gradientUnits="userSpaceOnUse" xlink:href="#linearGradient5060"/><linearGradient id="linearGradient5048"><stop style="stop-color:black;stop-opacity:0" id="stop5050" offset="0"/><stop id="stop5056" offset=".5" style="stop-color:black;stop-opacity:1"/><stop style="stop-color:black;stop-opacity:0" id="stop5052" offset="1"/></linearGradient><linearGradient id="linearGradient6715" x1="302.857" x2="302.857" y1="366.648" y2="609.505" gradientTransform="matrix(2.774389,0,0,1.969706,-1892.179,-872.8854)" gradientUnits="userSpaceOnUse" xlink:href="#linearGradient5048"/><linearGradient id="linearGradient4548"><stop id="stop4550" offset="0" style="stop-color:#8c8c8c;stop-opacity:1"/><stop id="stop4552" offset="1" style="stop-color:#8c8c8c;stop-opacity:0"/></linearGradient><linearGradient id="linearGradient4009"><stop id="stop4011" offset="0" style="stop-color:#fff;stop-opacity:1"/><stop id="stop4013" offset="1" style="stop-color:#fff;stop-opacity:0"/></linearGradient><linearGradient id="linearGradient3997"><stop id="stop3999" offset="0" style="stop-color:#ebebeb;stop-opacity:1"/><stop id="stop4001" offset="1" style="stop-color:#acacac;stop-opacity:1"/></linearGradient><linearGradient id="linearGradient4003" x1="12.094" x2="30.142" y1="20.937" y2="43.378" gradientUnits="userSpaceOnUse" xlink:href="#linearGradient3997"/><linearGradient id="linearGradient4015" x1="11.89" x2="17.701" y1="19.736" y2="52.666" gradientUnits="userSpaceOnUse" xlink:href="#linearGradient4009"/><linearGradient id="linearGradient4554" x1="11.503" x2="35.257" y1="14.911" y2="5.011" gradientUnits="userSpaceOnUse" xlink:href="#linearGradient4548"/><linearGradient id="linearGradient4346" x1="22.308" x2="35.785" y1="18.992" y2="39.498" gradientTransform="matrix(0.8952542,0,0,0.9366808,5.0877606,3.6737049)" gradientUnits="userSpaceOnUse" xlink:href="#linearGradient15218"/><linearGradient id="linearGradient4348" x1="26.076" x2="30.811" y1="26.697" y2="42.007" gradientTransform="matrix(0.8383674,0,0,0.9468346,6.4296195,3.6719854)" gradientUnits="userSpaceOnUse" xlink:href="#linearGradient2259"/><linearGradient id="linearGradient4350" x1="35.997" x2="33.665" y1="40.458" y2="37.771" gradientTransform="matrix(0.8388531,0,0,0.9468346,6.5726579,3.6719854)" gradientUnits="userSpaceOnUse" xlink:href="#linearGradient2224"/><linearGradient id="linearGradient4352" x1="33.396" x2="34.17" y1="36.921" y2="38.07" gradientTransform="matrix(0.8388531,0,0,0.9468346,6.5726579,3.3169225)" gradientUnits="userSpaceOnUse" xlink:href="#linearGradient2251"/><radialGradient id="radialGradient4942" cx="24.13" cy="37.968" r="16.529" fx="24.13" fy="37.968" gradientTransform="matrix(1,0,0,0.237968,0,28.93278)" gradientUnits="userSpaceOnUse" xlink:href="#linearGradient4477"/><linearGradient id="linearGradient4944" x1="18.293" x2="17.501" y1="13.602" y2="25.743" gradientUnits="userSpaceOnUse" xlink:href="#linearGradient2366"/><radialGradient id="radialGradient4946" cx="24.13" cy="37.968" r="16.529" fx="24.13" fy="37.968" gradientTransform="matrix(1,0,0,0.237968,0,28.93278)" gradientUnits="userSpaceOnUse" xlink:href="#linearGradient4487"/><radialGradient id="radialGradient4948" cx="18.241" cy="21.818" r="8.309" fx="18.241" fy="21.818" gradientUnits="userSpaceOnUse" xlink:href="#linearGradient4454"/><radialGradient id="radialGradient4961" cx="24.13" cy="37.968" r="16.529" fx="24.13" fy="37.968" gradientTransform="matrix(1,0,0,0.237968,0,28.93278)" gradientUnits="userSpaceOnUse" xlink:href="#linearGradient4477"/><linearGradient id="linearGradient4963" x1="27.366" x2="31.336" y1="26.58" y2="30.558" gradientTransform="matrix(-0.9250211,0,0,1.0091596,99.510313,37.988053)" gradientUnits="userSpaceOnUse" xlink:href="#linearGradient2846"/><linearGradient id="linearGradient4965" x1="30.656" x2="33.219" y1="34" y2="31.063" gradientTransform="matrix(-1.2345267,0,0,1.3031197,105.88191,30.308169)" gradientUnits="userSpaceOnUse" xlink:href="#linearGradient4440"/><linearGradient id="linearGradient4967" x1="18.293" x2="17.501" y1="13.602" y2="25.743" gradientUnits="userSpaceOnUse" xlink:href="#linearGradient2366"/><radialGradient id="radialGradient4969" cx="24.13" cy="37.968" r="16.529" fx="24.13" fy="37.968" gradientTransform="matrix(1,0,0,0.237968,0,28.93278)" gradientUnits="userSpaceOnUse" xlink:href="#linearGradient4487"/><radialGradient id="radialGradient4971" cx="18.241" cy="21.818" r="8.309" fx="18.241" fy="21.818" gradientUnits="userSpaceOnUse" xlink:href="#linearGradient4454"/><radialGradient id="radialGradient4973" cx="15.414" cy="13.078" r="6.656" fx="15.414" fy="13.078" gradientTransform="matrix(2.3985455,0,0,2.2727324,42.013098,18.899449)" gradientUnits="userSpaceOnUse" xlink:href="#linearGradient4467"/><linearGradient id="linearGradient4984" x1="26.076" x2="30.811" y1="26.697" y2="42.007" gradientTransform="matrix(0.8368812,0,0,0.935453,4.2213132,-0.1217866)" gradientUnits="userSpaceOnUse" xlink:href="#linearGradient2259"/><linearGradient id="linearGradient4987" x1="22.308" x2="35.785" y1="18.992" y2="39.498" gradientTransform="matrix(0.8931988,0,0,0.925472,2.8987957,-0.1206733)" gradientUnits="userSpaceOnUse" xlink:href="#linearGradient15218"/><radialGradient id="radialGradient5016" cx="15.414" cy="13.078" r="6.656" fx="15.414" fy="13.078" gradientTransform="matrix(1.9045236,0,0,1.8046238,-9.9381554,-1.5563795)" gradientUnits="userSpaceOnUse" xlink:href="#linearGradient4467"/><linearGradient id="linearGradient5023" x1="30.656" x2="33.219" y1="34" y2="31.063" gradientTransform="matrix(-0.9802546,0,0,1.0347197,40.77577,7.5025173)" gradientUnits="userSpaceOnUse" xlink:href="#linearGradient4440"/><linearGradient id="linearGradient5027" x1="27.366" x2="31.336" y1="26.58" y2="30.558" gradientTransform="matrix(-0.734497,0,0,0.8013057,35.716514,13.600596)" gradientUnits="userSpaceOnUse" xlink:href="#linearGradient2846"/><radialGradient id="radialGradient5030" cx="24.13" cy="37.968" r="16.529" fx="24.13" fy="37.968" gradientTransform="matrix(1,0,0,0.237968,0,28.93278)" gradientUnits="userSpaceOnUse" xlink:href="#linearGradient4487"/><radialGradient id="radialGradient5032" cx="24.13" cy="37.968" r="16.529" fx="24.13" fy="37.968" gradientTransform="matrix(1,0,0,0.237968,0,28.93278)" gradientUnits="userSpaceOnUse" xlink:href="#linearGradient4477"/></defs><metadata id="metadata4"/><g id="layer4" style="display:none"><path id="path3995" d="M 10.5,19.25 C 10.75,11.875 14.625,8.2499999 19.75,8.3749999 C 24.875,8.4999999 25.625,11.75 32.375,11.75 C 39.125,11.75 39.125,7.2499999 38,5.9999999 C 36.875,4.7499999 35.625,3.4999999 35.625,3.4999999" style="fill:none;stroke:url(#linearGradient4554);stroke-width:1px;stroke-linecap:butt;stroke-linejoin:miter;stroke-opacity:1;display:inline"/><g style="display:inline" id="g6707" transform="matrix(2.446584e-2,0,0,2.086758e-2,44.94828,38.9036)"><rect style="opacity:.40206185;color:#000;fill:url(#linearGradient6715);fill-opacity:1;fill-rule:nonzero;stroke:none;stroke-width:1;marker:none;visibility:visible;display:inline;overflow:visible" id="rect6709" width="1339.633" height="478.357" x="-1559.252" y="-150.697"/><path style="opacity:.40206185;color:#000;fill:url(#radialGradient6717);fill-opacity:1;fill-rule:nonzero;stroke:none;stroke-width:1;marker:none;visibility:visible;display:inline;overflow:visible" id="path6711" d="M -219.61876,-150.68038 C -219.61876,-150.68038 -219.61876,327.65041 -219.61876,327.65041 C -76.744594,328.55086 125.78146,220.48075 125.78138,88.454235 C 125.78138,-43.572302 -33.655436,-150.68036 -219.61876,-150.68038 L -219.61876,-150.68038 z"/><path id="path6713" d="M -1559.2523,-150.68038 C -1559.2523,-150.68038 -1559.2523,327.65041 -1559.2523,327.65041 C -1702.1265,328.55086 -1904.6525,220.48075 -1904.6525,88.454235 C -1904.6525,-43.572302 -1745.2157,-150.68036 -1559.2523,-150.68038 L -1559.2523,-150.68038 z" style="opacity:.40206185;color:#000;fill:url(#radialGradient6719);fill-opacity:1;fill-rule:nonzero;stroke:none;stroke-width:1;marker:none;visibility:visible;display:inline;overflow:visible"/></g><path id="path3233" d="M 1.625,40.71967 C 1.3125,41.65717 1.8125,42.28217 2.75,42.34467 L 42.5,42.34467 C 43.9375,42.40717 44.5,41.46967 44.375,40.71967 L 40.75,21.390165 C 40.5625,20.140165 39.5,19.452665 38.5,19.515165 L 7.75,19.515165 C 6.75,19.452665 6.1875,20.327665 6,21.265165 L 1.625,40.71967 z" style="fill:url(#linearGradient4003);fill-opacity:1;fill-rule:evenodd;stroke:#626262;stroke-width:1;stroke-linecap:butt;stroke-linejoin:miter;stroke-miterlimit:4;stroke-dasharray:none;stroke-opacity:1;display:inline"/><g style="display:inline" id="g4019" transform="translate(-1.9375,-1)"><rect id="rect4017" width="13.938" height="2.938" x="11.188" y="35.125" rx=".688" ry=".688" style="color:#000;fill:#6d6d6d;fill-opacity:1;fill-rule:evenodd;stroke:none;stroke-width:2;marker:none;visibility:visible;display:inline;overflow:visible"/><rect style="color:#000;fill:#e4e4e4;fill-opacity:1;fill-rule:evenodd;stroke:none;stroke-width:2;marker:none;visibility:visible;display:inline;overflow:visible" id="rect3235" width="13.438" height="1.875" x="11.313" y="35.063" rx=".688" ry=".688"/></g><g style="display:inline" id="g4157" transform="matrix(0.233183,0,0,1,4.908258,-11.55329)"><rect style="color:#000;fill:#6d6d6d;fill-opacity:1;fill-rule:evenodd;stroke:none;stroke-width:2;marker:none;visibility:visible;display:inline;overflow:visible" id="rect4159" width="13.938" height="2.938" x="11.188" y="35.125" rx="2.948" ry=".688"/><rect id="rect4161" width="13.438" height="1.875" x="11.313" y="35.063" rx="2.948" ry=".688" style="color:#000;fill:#e4e4e4;fill-opacity:1;fill-rule:evenodd;stroke:none;stroke-width:2;marker:none;visibility:visible;display:inline;overflow:visible"/></g><g style="display:inline" id="g4178" transform="matrix(0.233183,0,0,1,20.79733,-11.55329)"><rect style="color:#000;fill:#6d6d6d;fill-opacity:1;fill-rule:evenodd;stroke:none;stroke-width:2;marker:none;visibility:visible;display:inline;overflow:visible" id="rect4180" width="13.938" height="2.938" x="11.188" y="35.125" rx="2.948" ry=".688"/><rect id="rect4182" width="13.438" height="1.875" x="11.313" y="35.063" rx="2.948" ry=".688" style="color:#000;fill:#e4e4e4;fill-opacity:1;fill-rule:evenodd;stroke:none;stroke-width:2;marker:none;visibility:visible;display:inline;overflow:visible"/></g><g style="display:inline" id="g4151" transform="matrix(0.233183,0,0,1,8.79733,-11.55329)"><rect id="rect4153" width="13.938" height="2.938" x="11.188" y="35.125" rx="2.948" ry=".688" style="color:#000;fill:#6d6d6d;fill-opacity:1;fill-rule:evenodd;stroke:none;stroke-width:2;marker:none;visibility:visible;display:inline;overflow:visible"/><rect style="color:#000;fill:#e4e4e4;fill-opacity:1;fill-rule:evenodd;stroke:none;stroke-width:2;marker:none;visibility:visible;display:inline;overflow:visible" id="rect4155" width="13.438" height="1.875" x="11.313" y="35.063" rx="2.948" ry=".688"/></g><path style="fill:none;stroke:url(#linearGradient4015);stroke-width:.99999952;stroke-linecap:butt;stroke-linejoin:miter;stroke-miterlimit:4;stroke-dasharray:none;stroke-opacity:1;display:inline" id="path4005" d="M 2.7160483,40.201509 C 2.3827415,41.445427 2.3250061,41.296396 3.651931,41.296396 L 41.386453,41.296396 C 43.028316,41.296396 43.584967,41.565014 43.217091,40.139009 L 39.861191,21.987742 C 39.592935,20.584777 39.185783,20.500853 37.614426,20.500853 L 8.6169653,20.500853 C 7.2036636,20.500853 7.268517,20.579543 6.9667033,21.838615 L 2.7160483,40.201509 L 2.7160483,40.201509 z"/><g style="display:inline" id="g4023" transform="matrix(0.233183,0,0,1,21.07875,-1)"><rect style="color:#000;fill:#6d6d6d;fill-opacity:1;fill-rule:evenodd;stroke:none;stroke-width:2;marker:none;visibility:visible;display:inline;overflow:visible" id="rect4025" width="13.938" height="2.938" x="11.188" y="35.125" rx="2.948" ry=".688"/><rect id="rect4027" width="13.438" height="1.875" x="11.313" y="35.063" rx="2.948" ry=".688" style="color:#000;fill:#e4e4e4;fill-opacity:1;fill-rule:evenodd;stroke:none;stroke-width:2;marker:none;visibility:visible;display:inline;overflow:visible"/></g><g style="display:inline" id="g4029" transform="matrix(0.233183,0,0,1,2.76625,-1)"><rect id="rect4031" width="13.938" height="2.938" x="11.188" y="35.125" rx="2.948" ry=".688" style="color:#000;fill:#6d6d6d;fill-opacity:1;fill-rule:evenodd;stroke:none;stroke-width:2;marker:none;visibility:visible;display:inline;overflow:visible"/><rect style="color:#000;fill:#e4e4e4;fill-opacity:1;fill-rule:evenodd;stroke:none;stroke-width:2;marker:none;visibility:visible;display:inline;overflow:visible" id="rect4033" width="13.438" height="1.875" x="11.313" y="35.063" rx="2.948" ry=".688"/></g><g style="display:inline" id="g4035" transform="matrix(0.233183,0,0,1,26.95375,-1)"><rect id="rect4037" width="13.938" height="2.938" x="11.188" y="35.125" rx="2.948" ry=".688" style="color:#000;fill:#6d6d6d;fill-opacity:1;fill-rule:evenodd;stroke:none;stroke-width:2;marker:none;visibility:visible;display:inline;overflow:visible"/><rect style="color:#000;fill:#e4e4e4;fill-opacity:1;fill-rule:evenodd;stroke:none;stroke-width:2;marker:none;visibility:visible;display:inline;overflow:visible" id="rect4039" width="13.438" height="1.875" x="11.313" y="35.063" rx="2.948" ry=".688"/></g><g style="display:inline" id="g4053" transform="matrix(0.233183,0,0,1,30.45375,-4)"><rect id="rect4055" width="13.938" height="2.938" x="11.188" y="35.125" rx="2.948" ry=".688" style="color:#000;fill:#6d6d6d;fill-opacity:1;fill-rule:evenodd;stroke:none;stroke-width:2;marker:none;visibility:visible;display:inline;overflow:visible"/><rect style="color:#000;fill:#e4e4e4;fill-opacity:1;fill-rule:evenodd;stroke:none;stroke-width:2;marker:none;visibility:visible;display:inline;overflow:visible" id="rect4057" width="13.438" height="1.875" x="11.313" y="35.063" rx="2.948" ry=".688"/></g><g style="display:inline" id="g4041" transform="matrix(0.233183,0,0,1,30.70375,-1)"><rect style="color:#000;fill:#6d6d6d;fill-opacity:1;fill-rule:evenodd;stroke:none;stroke-width:2;marker:none;visibility:visible;display:inline;overflow:visible" id="rect4043" width="13.938" height="2.938" x="11.188" y="35.125" rx="2.948" ry=".688"/><rect id="rect4045" width="13.438" height="1.875" x="11.313" y="35.063" rx="2.948" ry=".688" style="color:#000;fill:#e4e4e4;fill-opacity:1;fill-rule:evenodd;stroke:none;stroke-width:2;marker:none;visibility:visible;display:inline;overflow:visible"/></g><g style="display:inline" id="g4047" transform="matrix(0.233183,0,0,1,34.39125,-1)"><rect id="rect4049" width="13.938" height="2.938" x="11.188" y="35.125" rx="2.948" ry=".688" style="color:#000;fill:#6d6d6d;fill-opacity:1;fill-rule:evenodd;stroke:none;stroke-width:2;marker:none;visibility:visible;display:inline;overflow:visible"/><rect style="color:#000;fill:#e4e4e4;fill-opacity:1;fill-rule:evenodd;stroke:none;stroke-width:2;marker:none;visibility:visible;display:inline;overflow:visible" id="rect4051" width="13.438" height="1.875" x="11.313" y="35.063" rx="2.948" ry=".688"/></g><g style="display:inline" id="g4085" transform="matrix(0.233183,0,0,1,3.70375,-5.060656)"><rect style="color:#000;fill:#6d6d6d;fill-opacity:1;fill-rule:evenodd;stroke:none;stroke-width:2;marker:none;visibility:visible;display:inline;overflow:visible" id="rect4087" width="13.938" height="2.938" x="11.188" y="35.125" rx="2.948" ry=".688"/><rect id="rect4089" width="13.438" height="1.875" x="11.313" y="35.063" rx="2.948" ry=".688" style="color:#000;fill:#e4e4e4;fill-opacity:1;fill-rule:evenodd;stroke:none;stroke-width:2;marker:none;visibility:visible;display:inline;overflow:visible"/></g><g style="display:inline" id="g4091" transform="matrix(0.233183,0,0,1,7.70375,-5.060656)"><rect id="rect4093" width="13.938" height="2.938" x="11.188" y="35.125" rx="2.948" ry=".688" style="color:#000;fill:#6d6d6d;fill-opacity:1;fill-rule:evenodd;stroke:none;stroke-width:2;marker:none;visibility:visible;display:inline;overflow:visible"/><rect style="color:#000;fill:#e4e4e4;fill-opacity:1;fill-rule:evenodd;stroke:none;stroke-width:2;marker:none;visibility:visible;display:inline;overflow:visible" id="rect4095" width="13.438" height="1.875" x="11.313" y="35.063" rx="2.948" ry=".688"/></g><g style="display:inline" id="g4097" transform="matrix(0.233183,0,0,1,11.70375,-5.060656)"><rect style="color:#000;fill:#6d6d6d;fill-opacity:1;fill-rule:evenodd;stroke:none;stroke-width:2;marker:none;visibility:visible;display:inline;overflow:visible" id="rect4099" width="13.938" height="2.938" x="11.188" y="35.125" rx="2.948" ry=".688"/><rect id="rect4101" width="13.438" height="1.875" x="11.313" y="35.063" rx="2.948" ry=".688" style="color:#000;fill:#e4e4e4;fill-opacity:1;fill-rule:evenodd;stroke:none;stroke-width:2;marker:none;visibility:visible;display:inline;overflow:visible"/></g><g style="display:inline" id="g4103" transform="matrix(0.233183,0,0,1,15.70375,-5.060656)"><rect id="rect4105" width="13.938" height="2.938" x="11.188" y="35.125" rx="2.948" ry=".688" style="color:#000;fill:#6d6d6d;fill-opacity:1;fill-rule:evenodd;stroke:none;stroke-width:2;marker:none;visibility:visible;display:inline;overflow:visible"/><rect style="color:#000;fill:#e4e4e4;fill-opacity:1;fill-rule:evenodd;stroke:none;stroke-width:2;marker:none;visibility:visible;display:inline;overflow:visible" id="rect4107" width="13.438" height="1.875" x="11.313" y="35.063" rx="2.948" ry=".688"/></g><g style="display:inline" id="g4121" transform="matrix(0.233183,0,0,1,21.70375,-8.2097)"><rect style="color:#000;fill:#6d6d6d;fill-opacity:1;fill-rule:evenodd;stroke:none;stroke-width:2;marker:none;visibility:visible;display:inline;overflow:visible" id="rect4123" width="13.938" height="2.938" x="11.188" y="35.125" rx="2.948" ry=".688"/><rect id="rect4125" width="13.438" height="1.875" x="11.313" y="35.063" rx="2.948" ry=".688" style="color:#000;fill:#e4e4e4;fill-opacity:1;fill-rule:evenodd;stroke:none;stroke-width:2;marker:none;visibility:visible;display:inline;overflow:visible"/></g><g style="display:inline" id="g4109" transform="matrix(0.233183,0,0,1,19.70375,-5.060656)"><rect style="color:#000;fill:#6d6d6d;fill-opacity:1;fill-rule:evenodd;stroke:none;stroke-width:2;marker:none;visibility:visible;display:inline;overflow:visible" id="rect4111" width="13.938" height="2.938" x="11.188" y="35.125" rx="2.948" ry=".688"/><rect id="rect4113" width="13.438" height="1.875" x="11.313" y="35.063" rx="2.948" ry=".688" style="color:#000;fill:#e4e4e4;fill-opacity:1;fill-rule:evenodd;stroke:none;stroke-width:2;marker:none;visibility:visible;display:inline;overflow:visible"/></g><g style="display:inline" id="g4115" transform="matrix(0.233183,0,0,1,23.70375,-5.060656)"><rect id="rect4117" width="13.938" height="2.938" x="11.188" y="35.125" rx="2.948" ry=".688" style="color:#000;fill:#6d6d6d;fill-opacity:1;fill-rule:evenodd;stroke:none;stroke-width:2;marker:none;visibility:visible;display:inline;overflow:visible"/><rect style="color:#000;fill:#e4e4e4;fill-opacity:1;fill-rule:evenodd;stroke:none;stroke-width:2;marker:none;visibility:visible;display:inline;overflow:visible" id="rect4119" width="13.438" height="1.875" x="11.313" y="35.063" rx="2.948" ry=".688"/></g><g style="display:inline" id="g4172" transform="matrix(0.233183,0,0,1,16.79733,-11.55329)"><rect id="rect4174" width="13.938" height="2.938" x="11.188" y="35.125" rx="2.948" ry=".688" style="color:#000;fill:#6d6d6d;fill-opacity:1;fill-rule:evenodd;stroke:none;stroke-width:2;marker:none;visibility:visible;display:inline;overflow:visible"/><rect style="color:#000;fill:#e4e4e4;fill-opacity:1;fill-rule:evenodd;stroke:none;stroke-width:2;marker:none;visibility:visible;display:inline;overflow:visible" id="rect4176" width="13.438" height="1.875" x="11.313" y="35.063" rx="2.948" ry=".688"/></g><g style="display:inline" id="g4127" transform="matrix(0.233183,0,0,1,17.70375,-8.2097)"><rect id="rect4129" width="13.938" height="2.938" x="11.188" y="35.125" rx="2.948" ry=".688" style="color:#000;fill:#6d6d6d;fill-opacity:1;fill-rule:evenodd;stroke:none;stroke-width:2;marker:none;visibility:visible;display:inline;overflow:visible"/><rect style="color:#000;fill:#e4e4e4;fill-opacity:1;fill-rule:evenodd;stroke:none;stroke-width:2;marker:none;visibility:visible;display:inline;overflow:visible" id="rect4131" width="13.438" height="1.875" x="11.313" y="35.063" rx="2.948" ry=".688"/></g><g style="display:inline" id="g4166" transform="matrix(0.233183,0,0,1,12.79733,-11.55329)"><rect style="color:#000;fill:#6d6d6d;fill-opacity:1;fill-rule:evenodd;stroke:none;stroke-width:2;marker:none;visibility:visible;display:inline;overflow:visible" id="rect4168" width="13.938" height="2.938" x="11.188" y="35.125" rx="2.948" ry=".688"/><rect id="rect4170" width="13.438" height="1.875" x="11.313" y="35.063" rx="2.948" ry=".688" style="color:#000;fill:#e4e4e4;fill-opacity:1;fill-rule:evenodd;stroke:none;stroke-width:2;marker:none;visibility:visible;display:inline;overflow:visible"/></g><g style="display:inline" id="g4133" transform="matrix(0.233183,0,0,1,13.70375,-8.2097)"><rect style="color:#000;fill:#6d6d6d;fill-opacity:1;fill-rule:evenodd;stroke:none;stroke-width:2;marker:none;visibility:visible;display:inline;overflow:visible" id="rect4135" width="13.938" height="2.938" x="11.188" y="35.125" rx="2.948" ry=".688"/><rect id="rect4137" width="13.438" height="1.875" x="11.313" y="35.063" rx="2.948" ry=".688" style="color:#000;fill:#e4e4e4;fill-opacity:1;fill-rule:evenodd;stroke:none;stroke-width:2;marker:none;visibility:visible;display:inline;overflow:visible"/></g><g style="display:inline" id="g4139" transform="matrix(0.233183,0,0,1,9.70375,-8.2097)"><rect id="rect4141" width="13.938" height="2.938" x="11.188" y="35.125" rx="2.948" ry=".688" style="color:#000;fill:#6d6d6d;fill-opacity:1;fill-rule:evenodd;stroke:none;stroke-width:2;marker:none;visibility:visible;display:inline;overflow:visible"/><rect style="color:#000;fill:#e4e4e4;fill-opacity:1;fill-rule:evenodd;stroke:none;stroke-width:2;marker:none;visibility:visible;display:inline;overflow:visible" id="rect4143" width="13.438" height="1.875" x="11.313" y="35.063" rx="2.948" ry=".688"/></g><g style="display:inline" id="g4145" transform="matrix(0.233183,0,0,1,5.70375,-8.2097)"><rect style="color:#000;fill:#6d6d6d;fill-opacity:1;fill-rule:evenodd;stroke:none;stroke-width:2;marker:none;visibility:visible;display:inline;overflow:visible" id="rect4147" width="13.938" height="2.938" x="11.188" y="35.125" rx="2.948" ry=".688"/><rect id="rect4149" width="13.438" height="1.875" x="11.313" y="35.063" rx="2.948" ry=".688" style="color:#000;fill:#e4e4e4;fill-opacity:1;fill-rule:evenodd;stroke:none;stroke-width:2;marker:none;visibility:visible;display:inline;overflow:visible"/></g><g style="display:inline" id="g4220" transform="matrix(0.233183,0,0,1,28.63055,-8.121316)"><rect id="rect4222" width="13.938" height="2.938" x="11.188" y="35.125" rx="2.948" ry=".688" style="color:#000;fill:#6d6d6d;fill-opacity:1;fill-rule:evenodd;stroke:none;stroke-width:2;marker:none;visibility:visible;display:inline;overflow:visible"/><rect style="color:#000;fill:#e4e4e4;fill-opacity:1;fill-rule:evenodd;stroke:none;stroke-width:2;marker:none;visibility:visible;display:inline;overflow:visible" id="rect4224" width="13.438" height="1.875" x="11.313" y="35.063" rx="2.948" ry=".688"/></g><g style="display:inline" id="g4226" transform="matrix(0.233183,0,0,1,32.63055,-8.121316)"><rect style="color:#000;fill:#6d6d6d;fill-opacity:1;fill-rule:evenodd;stroke:none;stroke-width:2;marker:none;visibility:visible;display:inline;overflow:visible" id="rect4228" width="13.938" height="2.938" x="11.188" y="35.125" rx="2.948" ry=".688"/><rect id="rect4230" width="13.438" height="1.875" x="11.313" y="35.063" rx="2.948" ry=".688" style="color:#000;fill:#e4e4e4;fill-opacity:1;fill-rule:evenodd;stroke:none;stroke-width:2;marker:none;visibility:visible;display:inline;overflow:visible"/></g><g style="display:inline" id="g4264" transform="matrix(1,0,0,1.45,0.850955,-9.293134)"><rect id="rect4254" width="2.475" height="1.503" x="29.522" y="21.572" rx="2.948" ry=".474" style="color:#000;fill:#787843;fill-opacity:1;fill-rule:evenodd;stroke:none;stroke-width:1;marker:none;visibility:visible;display:inline;overflow:visible"/><rect style="color:#000;fill:#787843;fill-opacity:1;fill-rule:evenodd;stroke:none;stroke-width:1;marker:none;visibility:visible;display:inline;overflow:visible" id="rect4256" width="2.475" height="1.503" x="33.522" y="21.572" rx="2.948" ry=".474"/><rect style="color:#000;fill:#e7e745;fill-opacity:1;fill-rule:evenodd;stroke:none;stroke-width:1;marker:none;visibility:visible;display:inline;overflow:visible" id="rect4250" width="2.475" height="1.503" x="29.787" y="21.837" rx="2.948" ry=".474"/><rect id="rect4252" width="2.475" height="1.503" x="33.787" y="21.837" rx="2.948" ry=".474" style="color:#000;fill:#e7e745;fill-opacity:1;fill-rule:evenodd;stroke:none;stroke-width:1;marker:none;visibility:visible;display:inline;overflow:visible"/></g></g><g id="layer1" style="display:inline"><g id="g4990" transform="translate(-9.4575532,-4.8613592)"><rect id="rect2279" width="10.896" height="1.874" x="26.962" y="36.356" style="opacity:.08522728;color:#000;fill:#000;fill-opacity:1;fill-rule:evenodd;stroke:none;stroke-width:1;marker:none;visibility:visible;display:inline;overflow:visible"/><rect id="rect4238" width="25.942" height="33.714" x="11.361" y="5.928" rx=".474" ry=".531" style="opacity:.5;fill:url(#linearGradient4987);fill-opacity:1;fill-rule:evenodd;stroke:#3b3b37;stroke-width:.685;stroke-linecap:butt;stroke-linejoin:miter;stroke-miterlimit:4;stroke-dasharray:none;stroke-dashoffset:0;stroke-opacity:1"/><rect id="rect4240" width="24.281" height="31.844" x="12.186" y="6.863" rx="0" ry="0" style="fill:#fff;fill-opacity:1;stroke:url(#linearGradient4984);stroke-width:.88529587;stroke-linecap:butt;stroke-linejoin:miter;stroke-miterlimit:4;stroke-dasharray:none;stroke-dashoffset:0;stroke-opacity:1"/><rect id="rect4248" width="17.601" height="1.874" x="15.06" y="15.191" style="opacity:.30573252;color:#000;fill:#000;fill-opacity:1;fill-rule:evenodd;stroke:none;stroke-width:1;marker:none;visibility:visible;display:inline;overflow:visible"/><rect style="opacity:.30573252;color:#000;fill:#000;fill-opacity:1;fill-rule:evenodd;stroke:none;stroke-width:1;marker:none;visibility:visible;display:inline;overflow:visible" id="rect2889" width="16.763" height="1.874" x="15.06" y="18.586"/><rect id="rect2891" width="15.086" height="1.874" x="15.06" y="22.335" style="opacity:.30573252;color:#000;fill:#000;fill-opacity:1;fill-rule:evenodd;stroke:none;stroke-width:1;marker:none;visibility:visible;display:inline;overflow:visible"/><rect style="opacity:.30573252;color:#000;fill:#000;fill-opacity:1;fill-rule:evenodd;stroke:none;stroke-width:1;marker:none;visibility:visible;display:inline;overflow:visible" id="rect2893" width="17.601" height="1.874" x="15.06" y="26.083"/><rect id="rect2895" width="10.896" height="1.874" x="15.06" y="29.831" style="opacity:.30573252;color:#000;fill:#000;fill-opacity:1;fill-rule:evenodd;stroke:none;stroke-width:1;marker:none;visibility:visible;display:inline;overflow:visible"/><use id="use4301" width="48" height="48" x="0" y="0" transform="translate(1.5317263e-8,-10.606602)" xlink:href="#rect2891"/><use id="use4303" width="48" height="48" x="0" y="0" transform="translate(1.5317263e-8,-17.854447)" xlink:href="#rect2893"/><use id="use4305" width="48" height="48" x="0" y="0" transform="translate(-1.5317263e-8,11.136932)" xlink:href="#rect2891"/></g><use id="use5011" width="48" height="48" x="0" y="0" transform="translate(1.944544,1.8561554)" xlink:href="#g4990"/><use id="use5013" width="48" height="48" x="0" y="0" transform="translate(2.0329315,1.8561552)" xlink:href="#use5011"/></g><g id="layer2" style="display:inline"><g id="g4334" transform="translate(2.1213203,1.5317262e-8)"><path style="fill:url(#linearGradient4346);fill-opacity:1;fill-rule:evenodd;stroke:#7b7d78;stroke-width:.89121014;stroke-linecap:butt;stroke-linejoin:miter;stroke-miterlimit:4;stroke-dashoffset:0;stroke-opacity:1" id="rect12413" d="M 14.047771,9.7955824 L 39.092894,9.7955824 C 39.35775,9.7955824 39.570977,10.03522 39.570977,10.332885 L 39.570977,36.055883 C 39.570977,38.400674 33.799826,43.917534 31.796545,43.917534 L 14.047771,43.917534 C 13.782911,43.917534 13.569687,43.677897 13.569687,43.380231 L 13.569687,10.332885 C 13.569687,10.03522 13.782911,9.7955824 14.047771,9.7955824 L 14.047771,9.7955824 z"/><rect id="rect15244" width="24.325" height="32.231" x="14.408" y="10.742" rx="0" ry="0" style="fill:none;stroke:url(#linearGradient4348);stroke-width:.89121068;stroke-linecap:butt;stroke-linejoin:miter;stroke-miterlimit:4;stroke-dasharray:none;stroke-dashoffset:0;stroke-opacity:1"/><path id="path2210" d="M 31.787813,43.915823 C 33.491038,44.228181 39.831399,39.626729 39.576072,35.86977 C 38.264725,38.164042 35.584367,37.088098 32.137725,37.238654 C 32.137725,37.238654 32.469382,43.442405 31.787813,43.915823 z" style="color:#000;fill:url(#linearGradient4350);fill-opacity:1;fill-rule:evenodd;stroke:#868a84;stroke-width:.89121014;stroke-linecap:butt;stroke-linejoin:miter;marker:none;stroke-miterlimit:4;stroke-dasharray:none;stroke-dashoffset:0;stroke-opacity:1;visibility:visible;display:inline;overflow:visible"/><path style="opacity:.36931817;color:#000;fill:none;stroke:url(#linearGradient4352);stroke-width:.89120984;stroke-linecap:butt;stroke-linejoin:miter;marker:none;stroke-miterlimit:4;stroke-dasharray:none;stroke-dashoffset:0;stroke-opacity:1;visibility:visible;display:inline;overflow:visible" id="path2247" d="M 33.004515,41.840832 C 34.15356,41.19336 36.719168,39.808486 37.809158,38.027486 C 36.470269,38.671385 35.33638,38.225844 33.025736,38.207768 C 33.025736,38.207768 33.161901,41.107064 33.004542,41.840832 L 33.004515,41.840832 z"/><rect id="rect2271" width="17.616" height="1.894" x="18.181" y="17.875" style="opacity:.50555558;color:#000;fill:red;fill-opacity:1;fill-rule:evenodd;stroke:none;stroke-width:1;marker:none;visibility:visible;display:inline;overflow:visible"/><rect style="opacity:.50555558;color:#000;fill:#000;fill-opacity:1;fill-rule:evenodd;stroke:none;stroke-width:1;marker:none;visibility:visible;display:inline;overflow:visible" id="rect2273" width="16.771" height="1.894" x="18.181" y="21.662"/><rect id="rect2275" width="15.08" height="1.894" x="18.181" y="25.449" style="opacity:.50555558;color:#000;fill:#0f0;fill-opacity:1;fill-rule:evenodd;stroke:none;stroke-width:1;marker:none;visibility:visible;display:inline;overflow:visible"/><rect style="opacity:.50555558;color:#000;fill:#000;fill-opacity:1;fill-rule:evenodd;stroke:none;stroke-width:1;marker:none;visibility:visible;display:inline;overflow:visible" id="rect2277" width="17.616" height="1.894" x="18.181" y="29.237"/><rect style="opacity:.50555558;color:#000;fill:#000;fill-opacity:1;fill-rule:evenodd;stroke:none;stroke-width:1;marker:none;visibility:visible;display:inline;overflow:visible" id="rect3137" width="16.083" height="1.894" x="18.181" y="14.067"/><rect id="rect3139" width="18.478" height="1.894" x="18.181" y="33.104" style="opacity:.50555558;color:#000;fill:#000;fill-opacity:1;fill-rule:evenodd;stroke:none;stroke-width:1;marker:none;visibility:visible;display:inline;overflow:visible"/></g></g><g id="layer3" style="display:inline"><path id="path4896" d="M 40.65864 37.967922 A 16.528622 3.9332814 0 1 1 7.6013966,37.967922 A 16.528622 3.9332814 0 1 1 40.65864 37.967922 z" transform="matrix(-1.0623992,0,0,1.2179767,94.802558,-38.61036)" style="opacity:.17112301;color:#000;fill:url(#radialGradient5032);fill-opacity:1;fill-rule:evenodd;stroke:none;stroke-width:1;marker:none;visibility:visible;display:inline;overflow:visible"/><path style="color:#000;fill:url(#radialGradient5030);fill-opacity:1;fill-rule:evenodd;stroke:none;stroke-width:1;marker:none;visibility:visible;display:inline;overflow:visible" id="path4906" d="M 40.65864 37.967922 A 16.528622 3.9332814 0 1 1 7.6013966,37.967922 A 16.528622 3.9332814 0 1 1 40.65864 37.967922 z" transform="matrix(-0.3656062,0,0,0.4884928,80.150769,-11.870012)"/><g id="g5034"><path id="path4898" d="M 22.034615,16.119545 C 28.012784,16.119545 32.864626,21.412707 32.864626,27.934638 C 32.864626,34.456569 28.012784,39.749733 22.034615,39.749733 C 19.478894,39.749733 17.222928,38.64041 15.369997,37.023172 C 15.52084,37.829991 15.427311,38.654124 14.814611,39.234716 L 6.7615235,46.869084 C 5.8555799,47.727546 4.4937907,47.615067 3.7069043,46.626723 C 2.9200179,45.638379 3.0231151,44.152723 3.9290588,43.294261 L 11.982146,35.659892 C 12.475375,35.192508 13.078657,35.05413 13.676071,35.144875 C 12.216846,33.131657 11.204605,30.698587 11.204605,27.934638 C 11.204605,21.412707 16.056446,16.119545 22.034615,16.119545 L 22.034615,16.119545 z M 22.090158,17.102092 C 16.478999,17.102092 12.327391,20.939506 12.327391,27.752867 C 12.327391,34.704285 16.599732,38.403643 22.090158,38.403643 C 27.454151,38.403643 31.852925,34.014017 31.852925,27.752867 C 31.852925,21.355157 27.574748,17.102092 22.090158,17.102092 L 22.090158,17.102092 z" style="color:#000;fill:#dcdcdc;fill-opacity:1;fill-rule:evenodd;stroke:url(#linearGradient5027);stroke-width:1.53434968;stroke-linecap:round;stroke-linejoin:miter;marker:none;stroke-miterlimit:10;stroke-dasharray:none;stroke-dashoffset:0;stroke-opacity:1;visibility:visible;display:inline;overflow:visible"/><path style="color:#000;fill:#dcdcdc;fill-opacity:1;fill-rule:evenodd;stroke:none;stroke-width:1.00000036;marker:none;visibility:visible;display:inline;overflow:visible" id="path4900" d="M 21.903542,16.019275 C 27.901034,16.019275 32.768565,21.329548 32.768565,27.872561 C 32.768565,34.415575 27.901034,39.725847 21.903542,39.725847 C 19.339558,39.725847 17.076298,38.61294 15.217375,36.990474 C 15.368713,37.799902 15.274879,38.626698 14.660196,39.209166 L 6.581074,46.868212 C 5.6722083,47.729449 4.3060115,47.616608 3.5165842,46.625068 C 2.7271569,45.633529 2.8305876,44.14307 3.7394533,43.281834 L 11.818575,35.622787 C 12.313404,35.153892 12.918634,35.015067 13.517976,35.106106 C 12.054033,33.086379 11.038522,30.645445 11.038522,27.872561 C 11.038522,21.329548 15.906051,16.019275 21.903542,16.019275 L 21.903542,16.019275 z M 21.959261,18.572291 C 17.345806,18.572291 13.601554,22.657116 13.601554,27.690203 C 13.601554,32.723291 17.345806,36.808116 21.959261,36.808116 C 26.572716,36.808116 30.316974,32.723291 30.316974,27.690203 C 30.316966,22.657116 26.572716,18.572291 21.959261,18.572291 z"/><path style="color:#000;fill:url(#linearGradient5023);fill-opacity:1;fill-rule:evenodd;stroke:none;stroke-width:1;marker:none;visibility:visible;display:inline;overflow:visible" id="path4902" d="M 6.6357273,46.797226 C 6.9873091,44.975709 5.6093924,42.941806 4.0032548,42.960274 C 4.0032548,42.960274 11.906707,35.541697 11.906707,35.541697 C 14.069644,35.496254 15.042644,37.362757 14.680763,39.22764 L 6.6357273,46.797226 L 6.6357273,46.797226 z"/><path style="color:#000;fill:none;stroke:url(#linearGradient4967);stroke-width:.8027336;stroke-linecap:round;stroke-linejoin:miter;marker:none;stroke-miterlimit:10;stroke-dasharray:none;stroke-dashoffset:0;stroke-opacity:1;visibility:visible;display:inline;overflow:visible" id="path4904" d="M 28.549437 18.920233 A 11.048544 11.048544 0 1 1 6.4523487,18.920233 A 11.048544 11.048544 0 1 1 28.549437 18.920233 z" transform="matrix(0.9149945,0,0,0.998221,5.9522502,8.6714604)"/><rect style="opacity:.43315507;color:#000;fill:none;stroke:#fff;stroke-width:.76901913;stroke-linecap:round;stroke-linejoin:miter;marker:none;stroke-miterlimit:10;stroke-dasharray:none;stroke-dashoffset:0;stroke-opacity:1;visibility:visible;display:inline;overflow:visible" id="rect4908" width="14.556" height="3.436" x="10.969" y="34.634" rx="1.633" ry="1.461" transform="matrix(-0.7237722,0.690039,0.615881,0.7878392,0,0)"/><path style="color:#000;fill:url(#radialGradient4971);fill-opacity:1;fill-rule:evenodd;stroke:#3063a3;stroke-width:.71499395;stroke-linecap:round;stroke-linejoin:miter;marker:none;stroke-miterlimit:10;stroke-dashoffset:0;stroke-opacity:1;visibility:visible" id="path4910" d="M 25.897786 18.478292 A 8.3085051 8.3085051 0 1 1 9.280776,18.478292 A 8.3085051 8.3085051 0 1 1 25.897786 18.478292 z" transform="matrix(1.0272778,0,0,1.1207174,3.8963987,6.9711498)"/><path style="opacity:.83422457;color:#000;fill:url(#radialGradient5016);fill-opacity:1;fill-rule:evenodd;stroke:none;stroke-width:1;marker:none;visibility:visible;display:inline;overflow:visible" id="path4912" d="M 21.804356,19.548166 C 17.979397,19.548166 14.882055,22.927237 14.882055,27.100109 C 14.882055,28.305253 15.190769,29.414098 15.651199,30.42545 C 16.571069,30.795343 17.548227,31.047009 18.585344,31.047009 C 23.117891,31.047009 26.737733,27.151352 27.017447,22.283025 C 25.746059,20.643929 23.925186,19.548166 21.804356,19.548166 z"/></g><g style="display:inline" id="g1772" transform="matrix(0.9185623,0,0,1.0021133,72.618646,26.362084)"><path style="opacity:.17112301;color:#000;fill:url(#radialGradient4942);fill-opacity:1;fill-rule:evenodd;stroke:none;stroke-width:1;marker:none;visibility:visible;display:inline;overflow:visible" id="path4475" d="M 40.65864 37.967922 A 16.528622 3.9332814 0 1 1 7.6013966,37.967922 A 16.528622 3.9332814 0 1 1 40.65864 37.967922 z" transform="matrix(1.446431,0,0,1.51999,-10.97453,-17.75168)"/><path id="path2844" d="M 18.627569,3.1435548 C 10.488439,3.1435548 3.8827682,9.7492259 3.8827682,17.888356 C 3.8827682,26.027486 10.488439,32.633158 18.627569,32.633158 C 22.107124,32.633158 25.17857,31.248765 27.701292,29.230511 C 27.495915,30.237392 27.623262,31.265879 28.457436,31.990436 L 39.42152,41.517846 C 40.654936,42.589175 42.508982,42.448806 43.58031,41.215389 C 44.651638,39.981971 44.511269,38.127927 43.277853,37.056599 L 32.313769,27.529188 C 31.642242,26.945909 30.820891,26.773219 30.007531,26.886466 C 31.994231,24.374044 33.37237,21.337663 33.37237,17.888356 C 33.37237,9.7492259 26.766699,3.1435548 18.627569,3.1435548 L 18.627569,3.1435548 z M 18.551949,4.3697381 C 26.191408,4.3697381 31.843724,9.1586886 31.843724,17.661513 C 31.843724,26.336626 26.027034,30.953288 18.551949,30.953288 C 11.249,30.953288 5.2601756,25.475196 5.2601756,17.661513 C 5.2601756,9.6774061 11.084814,4.369738 18.551949,4.3697381 L 18.551949,4.3697381 z" style="color:#000;fill:#dcdcdc;fill-opacity:1;fill-rule:evenodd;stroke:url(#linearGradient2852);stroke-width:2.00000095;stroke-linecap:round;stroke-linejoin:miter;marker:none;stroke-miterlimit:10;stroke-dasharray:none;stroke-dashoffset:0;stroke-opacity:1;visibility:visible;display:inline;overflow:visible"/><path style="color:#000;fill:#dcdcdc;fill-opacity:1;fill-rule:evenodd;stroke:none;stroke-width:1.00000036;marker:none;visibility:visible;display:inline;overflow:visible" id="path4430" d="M 18.602905,3.0803551 C 10.437465,3.0803551 3.8104408,9.7073791 3.8104408,17.872819 C 3.8104408,26.038259 10.437465,32.665283 18.602905,32.665283 C 22.093708,32.665283 25.175082,31.276416 27.70596,29.251638 C 27.499919,30.261774 27.62767,31.293585 28.464547,32.020484 L 39.464073,41.578691 C 40.701476,42.653483 42.561515,42.512661 43.636306,41.275256 C 44.711097,40.037852 44.570274,38.177814 43.332871,37.103023 L 32.333346,27.544815 C 31.659648,26.959651 30.835642,26.786402 30.019653,26.900016 C 32.012775,24.379472 33.395369,21.333276 33.395369,17.872819 C 33.395369,9.7073791 26.768345,3.0803551 18.602905,3.0803551 L 18.602905,3.0803551 z M 18.527045,6.2664243 C 24.808153,6.2664245 29.905863,11.364135 29.905863,17.645243 C 29.905863,23.926351 24.808153,29.024061 18.527045,29.024061 C 12.245937,29.024061 7.1482266,23.926351 7.1482266,17.645243 C 7.1482268,11.364135 12.245937,6.2664243 18.527045,6.2664243 z"/><path style="color:#000;fill:url(#linearGradient4446);fill-opacity:1;fill-rule:evenodd;stroke:none;stroke-width:1;marker:none;visibility:visible;display:inline;overflow:visible" id="path4438" d="M 39.507004,41.57769 C 39.028332,39.304503 40.904334,36.766268 43.091057,36.789315 C 43.091057,36.789315 32.33069,27.531204 32.33069,27.531204 C 29.385899,27.474494 28.061188,29.80382 28.553876,32.131126 L 39.507004,41.57769 L 39.507004,41.57769 z"/><path style="color:#000;fill:none;stroke:url(#linearGradient4944);stroke-width:.8027336;stroke-linecap:round;stroke-linejoin:miter;marker:none;stroke-miterlimit:10;stroke-dasharray:none;stroke-dashoffset:0;stroke-opacity:1;visibility:visible;display:inline;overflow:visible" id="path4450" d="M 28.549437 18.920233 A 11.048544 11.048544 0 1 1 6.4523487,18.920233 A 11.048544 11.048544 0 1 1 28.549437 18.920233 z" transform="matrix(1.245743,0,0,1.245743,-3.425346,-6.177033)"/><path id="path4485" d="M 40.65864 37.967922 A 16.528622 3.9332814 0 1 1 7.6013966,37.967922 A 16.528622 3.9332814 0 1 1 40.65864 37.967922 z" transform="matrix(0.497764,0,0,0.609621,8.973526,15.61929)" style="color:#000;fill:url(#radialGradient4946);fill-opacity:1;fill-rule:evenodd;stroke:none;stroke-width:1;marker:none;visibility:visible;display:inline;overflow:visible"/><rect style="opacity:.43315507;color:#000;fill:none;stroke:#fff;stroke-width:1.00003111;stroke-linecap:round;stroke-linejoin:miter;marker:none;stroke-miterlimit:10;stroke-dasharray:none;stroke-dashoffset:0;stroke-opacity:1;visibility:visible;display:inline;overflow:visible" id="rect4495" width="19.048" height="4.44" x="40.373" y=".141" rx="2.137" ry="1.888" transform="matrix(0.752986,0.658037,-0.648902,0.760872,0,0)"/><path style="color:#000;fill:url(#radialGradient4948);fill-opacity:1;fill-rule:evenodd;stroke:#3063a3;stroke-width:.71499395;stroke-linecap:round;stroke-linejoin:miter;marker:none;stroke-miterlimit:10;stroke-dashoffset:0;stroke-opacity:1;visibility:visible" id="path4452" d="M 25.897786 18.478292 A 8.3085051 8.3085051 0 1 1 9.280776,18.478292 A 8.3085051 8.3085051 0 1 1 25.897786 18.478292 z" transform="matrix(1.398614,0,0,1.398614,-6.224338,-8.298958)"/><path style="opacity:.83422457;color:#000;fill:url(#radialGradient4473);fill-opacity:1;fill-rule:evenodd;stroke:none;stroke-width:1;marker:none;visibility:visible;display:inline;overflow:visible" id="path4462" d="M 18.156915,7.3966938 C 12.949325,7.3966938 8.7323681,11.613651 8.7323681,16.821241 C 8.7323681,18.325216 9.1526753,19.709014 9.77954,20.971144 C 11.03192,21.432757 12.362297,21.746827 13.774307,21.746827 C 19.945262,21.746827 24.873589,16.88519 25.254413,10.809698 C 23.523449,8.7641668 21.044374,7.3966938 18.156915,7.3966938 z"/></g></g></svg>